<svg width="221" height="233" viewBox="0 0 221 233" fill="none" xmlns="http://www.w3.org/2000/svg">
<path d="M174 140.5H211V10.01C211 7.20774 211 5.80661 210.605 4.68063C209.901 2.67589 208.324 1.09943 206.319 0.395415C205.193 0 203.792 0 200.99 0H175.822C174.485 0 173.817 0 173.186 0.116674C172.068 0.323326 171.018 0.799022 170.125 1.50265C169.621 1.89992 169.181 2.40212 168.299 3.40653L54.5351 133.01L51 172.569L171.289 54.7893L174 140.5Z" fill="#5C58A2"/>
<path d="M37 141L0 140.5V7C0 3.13401 3.13401 0 7 0H36.7517C38.6435 0 40.4547 0.765692 41.7728 2.12266L216.5 182L220.035 232.604L39.7109 54.7893L37 141Z" fill="#5C58A2"/>
</svg>
