<?xml version="1.0" encoding="utf-8"?>
<!-- Generator: Adobe Illustrator 16.0.0, SVG Export Plug-In . SVG Version: 6.00 Build 0)  -->
<!DOCTYPE svg PUBLIC "-//W3C//DTD SVG 1.1//EN" "http://www.w3.org/Graphics/SVG/1.1/DTD/svg11.dtd">
<svg version="1.1" id="Layer_1" xmlns="http://www.w3.org/2000/svg" xmlns:xlink="http://www.w3.org/1999/xlink" x="0px" y="0px"
	 width="122.88px" height="120.16px" viewBox="0 0 122.88 120.16" style="enable-background:new 0 0 122.88 120.16;"
	 xml:space="preserve">
<style type="text/css">
<![CDATA[
	.st0{fill-rule:evenodd;clip-rule:evenodd;}
]]>
</style>
<g>
	<path class="st0" d="M100.44,6.4c12.39,0,22.44,10.05,22.44,22.44c0,10.21-6.82,18.83-16.16,21.55
		c0.41,10.31,0.54,21.41-0.96,31.45c-1.61,10.86-4.96,20.21-10.95,27.03c-6.26,7.13-15.09,11.3-27.34,11.3
		c-17.49,0-27.38-7.62-32.93-18.41c-4.56-8.86-5.88-19.65-6.13-29.82c-2.5-1.76-5.01-4.16-7.47-7.01c-3.57-4.15-7.12-9.32-10.3-14.8
		c-0.9-1.56-0.95-3.38-0.29-4.91c-0.17-0.33-0.34-0.65-0.51-0.98C2.91,30.67-1.61,15.88,0.54,9.42c1.01-3.04,3.43-5.04,6.99-6.15
		c2.88-0.89,6.61-1.19,11.02-0.97c0.39-0.35,0.84-0.69,1.36-1.01c0.57-0.36,1.15-0.64,1.72-0.85C27.1-1.59,32.7,3.82,30.18,9.4
		c-1.14,2.53-3.66,4.37-6.37,4.3c-2.54-0.07-4.53-1.73-5.98-3.68l-0.09-0.18c-3.35-0.13-6.06,0.07-7.99,0.67
		c-1.16,0.36-1.87,0.79-2.04,1.28c-1.51,4.53,2.72,16.98,8.86,28.99c0.25,0.49,0.5,0.98,0.76,1.46c1.14,0.43,2.14,1.24,2.8,2.38
		c2.86,4.94,6,9.53,9.09,13.12c1.63,1.89,3.2,3.46,4.65,4.62c0.19,0,0.38,0.01,0.56,0.03c1.38-0.99,2.91-2.43,4.51-4.19
		c3.27-3.58,6.59-8.32,9.61-13.42c0.66-1.11,1.64-1.9,2.76-2.33c6.42-11.87,11.05-24.56,10.1-29.56c-0.22-1.14-1.23-1.88-2.7-2.37
		c-1.88-0.63-4.33-0.88-6.99-0.95c-0.07,0.15-0.15,0.3-0.23,0.46c-1.45,1.95-3.44,3.61-5.98,3.68c-2.71,0.07-5.22-1.77-6.37-4.3
		c-2.52-5.58,3.08-10.99,8.55-8.97c0.58,0.21,1.15,0.5,1.72,0.85c0.36,0.22,0.68,0.46,0.98,0.69c3.88,0.01,7.64,0.31,10.71,1.35
		c4.03,1.36,6.92,3.84,7.74,8.16c1.23,6.51-3.61,20.9-10.54,33.93c0.66,1.55,0.6,3.38-0.32,4.95c-3.38,5.71-7.17,11.08-10.95,15.22
		c-2.51,2.75-5.09,5.03-7.66,6.62c0.24,8.68,1.34,17.64,4.88,24.52c3.75,7.29,10.67,12.45,23.18,12.45c8.79,0,14.93-2.77,19.1-7.52
		c4.45-5.06,7-12.51,8.33-21.4c1.37-9.21,1.25-19.67,0.87-29.46C85.61,48.64,78,39.63,78,28.84C78,16.44,88.04,6.4,100.44,6.4
		L100.44,6.4z M95.8,43.37c0.07,0.02,0.14,0.04,0.21,0.07l0.01,0l0.07,0.02l0.08,0.02l0.2,0.06l0.14,0.04l0.18,0.05
		c0.08,0.02,0.15,0.04,0.22,0.05l0.17,0.04l0.21,0.04l0.16,0.03l0.25,0.05l0.09,0.02c0.09,0.02,0.18,0.03,0.28,0.05l0.11,0.02
		c0.1,0.02,0.2,0.03,0.31,0.04l0.02,0l0,0l0.02,0c0.11,0.01,0.21,0.03,0.32,0.04l0.08,0.01c0.11,0.01,0.22,0.02,0.32,0.03l0.05,0
		c0.12,0.01,0.24,0.02,0.36,0.02l0.01,0c0.12,0.01,0.25,0.01,0.37,0.01l0.02,0h0.01c0.13,0,0.26,0,0.38,0c0.13,0,0.26,0,0.39,0h0
		c0.13,0,0.26-0.01,0.39-0.01h0c0.13-0.01,0.25-0.02,0.38-0.02l0.01,0h0h0c0.12-0.01,0.24-0.02,0.36-0.03l0.02,0l0,0l0.01,0
		c0.12-0.01,0.25-0.03,0.37-0.04l0,0c0.12-0.02,0.24-0.03,0.36-0.05l0.02,0l0,0l0.01,0c0.12-0.02,0.24-0.04,0.36-0.06l0,0
		c0.12-0.02,0.24-0.04,0.35-0.07l0.02,0l0.01,0l0.01,0c0.12-0.02,0.23-0.05,0.35-0.08l0.01,0l0.01,0c0.12-0.03,0.24-0.06,0.36-0.09
		l0.01,0c0.11-0.03,0.22-0.06,0.33-0.09l0.06-0.02c0.11-0.03,0.21-0.06,0.32-0.1l0.01,0l0.01,0c0.11-0.04,0.22-0.07,0.33-0.11
		l0.02,0l0.01,0c0.11-0.04,0.22-0.08,0.33-0.12l0.01,0l0.01,0c0.11-0.04,0.23-0.08,0.34-0.13l0.01,0c0.11-0.04,0.21-0.09,0.32-0.13
		l0.01-0.01l0.01,0c5.47-2.32,9.3-7.73,9.3-14.05c0-8.42-6.83-15.25-15.25-15.25s-15.25,6.83-15.25,15.25
		c0,6.67,4.28,12.34,10.25,14.41l0.21,0.07l0.07,0.02L95.8,43.37L95.8,43.37z M100.44,20.5c4.61,0,8.34,3.73,8.34,8.34
		s-3.73,8.34-8.34,8.34s-8.34-3.73-8.34-8.34S95.83,20.5,100.44,20.5L100.44,20.5z"/>
</g>
</svg>
