<?xml version="1.0" standalone="no"?>
<!DOCTYPE svg PUBLIC "-//W3C//DTD SVG 20010904//EN"
 "http://www.w3.org/TR/2001/REC-SVG-20010904/DTD/svg10.dtd">
<svg version="1.0" xmlns="http://www.w3.org/2000/svg"
 width="690.000000pt" height="690.000000pt" viewBox="0 0 690.000000 690.000000"
 preserveAspectRatio="xMidYMid meet">
<metadata>
Created by potrace 1.14, written by Peter Selinger 2001-2017
</metadata>
<g transform="translate(0.000000,690.000000) scale(0.100000,-0.100000)"
fill="#000000" stroke="none">
<path d="M365 6880 c-91 -27 -143 -59 -215 -130 -71 -70 -115 -148 -137 -240
-10 -44 -13 -630 -12 -3065 0 -2866 1 -3013 18 -3077 10 -36 31 -88 46 -115
40 -68 140 -163 205 -195 126 -62 -114 -58 3180 -58 2114 1 3020 4 3055 12 93
20 175 66 245 137 73 75 111 140 134 227 14 53 16 387 16 3068 0 3311 5 3069
-59 3191 -63 121 -210 229 -346 254 -42 8 -940 11 -3065 10 -2864 -1 -3008 -1
-3065 -19z"/>
</g>
</svg>
